<svg version="1.2" xmlns="http://www.w3.org/2000/svg" viewBox="0 0 1574 305" width="1574" height="305">
	<title>1st-Quarterly-Report-2024-1-pdf-svg</title>
	<defs>
		<clipPath clipPathUnits="userSpaceOnUse" id="cp1">
			<path d="m-364.28-428.39h4495.6v6958.67h-4495.6z"/>
		</clipPath>
	</defs>
	<style>
		.s0 { fill: #f36f21 } 
		.s1 { fill: #013b82 } 
	</style>
	<g id="Clip-Path: Page 1" clip-path="url(#cp1)">
		<g id="Page 1">
			<path id="Path 8" class="s0" d="m80.7 0.8v291.1h14.8l148.1-249.6 142 249.6h15.8v-291.1z"/>
			<path id="Path 9" fill-rule="evenodd" class="s1" d="m477.5 265.2l-64.7 38.1q-10.2-6.3-20.4-11.4h-26.1l-12-20.4c-62.4-30.7-124.3-53.5-189-58.6l-48.8 79h-35.8v-29.5l30.1-48.9c-35.7 3.4-72.6 12.5-110.7 29.5 46-27.3 88-46 127.8-56.8l113.5-184.2 129.4 209.2c33.5 14.2 68.7 33 106.7 54zm-236.1-175.7l-52.8 85.9c38-3.4 74.9 1.1 112.9 11.3zm419.5 187.1l-19.8-50.6h-67l-18.8 50.6h-28.3l66.4-172.3h27.2l70.4 172.3zm-28.4-73.3l-16.4-43.8q-5.7-15.4-9.1-26.7-3.4 11.9-7.4 23.8l-17.6 46.7zm61.3-99h25v172.3h-25zm45.4 0h25v172.8h-25zm46.6 46.1h24.9v126.7h-24.9zm0-46.6h24.9v28.5h-24.9zm98.7 175.1q-27.8 0-44.2-17.1c-10.8-11.4-15.9-27.3-15.9-47.8 0-21 5.6-37.5 16.4-48.8 10.8-12 25-18.2 42.6-18.2 16.5 0 30.6 6.2 41.4 17.6 10.8 11.4 15.9 27.8 15.9 48.3q0 1.7 0 5.7v2.3h-90.8q1.7 17 10.8 26.7 9.4 10.2 23.8 10.2 10.8 0 18.2-5.7 7.4-5.6 11.9-18.2l0.6-1.7 25.5 3.5-0.5 2.2c-3.4 13.1-10.3 23.3-19.3 30.2-9.7 7.3-21.6 10.8-36.4 10.8zm30.1-79.6q-1.7-13.1-7.4-19.4c-6.2-7.4-13.6-11.3-23.8-11.3-8.5 0-15.9 2.8-22.1 9.1q-8.6 7.9-9.7 21.6zm87.4 79.6c-9.6 0-19.3-2.9-27.8-8-8.5-5.7-14.7-13.6-19.9-23.3q-6.8-15.4-6.8-34.1c0-12.5 2.3-23.9 6.3-34.1q6.8-15.4 19.3-23.9 12.5-8.5 28.4-8.5 11.3 0 20.4 5.1 6.2 3.4 10.8 7.9v-56.2h24.9v172.2h-23.8v-10.8q-11.3 13.7-31.8 13.7zm1.2-110.3c-8.6 0-15.4 3.4-21 10.8q-8.6 10.2-8.6 34.1 0 22.2 9.1 33.5c6.3 6.8 13.1 10.8 21.6 10.8 8.5 0 15.3-3.4 21-10.2q9.1-10.8 9.1-32.4 0-24.5-9.1-35.3c-6.2-7.4-13.1-11.3-22.1-11.3zm91.3 107.4v-172.2h65.3q19.3 0 31.8 5.1 11.9 5.7 18.7 16.5 7.4 11.3 7.4 23.3 0 11.9-6.2 21.6-5.1 7.9-14.2 13.6 12.5 5.1 19.9 14.8 8.5 11.4 8.5 26.7c0 8-1.7 15.9-5.1 22.8q-5.2 10.8-13.1 16.4-7.9 5.7-19.3 9.1-11.3 2.3-27.2 2.3zm65.8-23.9q10.8 0 14.8-1.1 7.3-1.1 11.9-4 5.1-2.8 7.9-8.5 2.9-5.7 2.9-13.1 0-8.5-4-15.3-4.5-6.3-12.5-8.6-8.5-2.8-23.8-2.8h-36.4v53.4zm-5.6-77.8q14.2 0 20.4-1.8 7.9-2.2 11.3-7.3 4-5.7 4-13.7 0-7.9-3.4-13.6-3.4-5.7-10.2-7.4-7.4-2.3-25-2.3h-31.2v46.1zm119.8 104.6q-21 0-32.4-10.3-11.9-10.2-11.9-26.7 0-9.7 4.5-17.6 4.6-8 11.4-12.5 6.8-4.6 15.3-6.8c4.6-1.2 10.2-2.3 18.7-3.5q23.3-2.8 35.2-6.2 0-2.9 0-4 0-11.4-5.1-15.9-7.6-6.8-22.1-6.8-13.6 0-20.4 5.1-6.3 4.5-9.1 16.5l-0.6 2.2-24.4-3.4 0.6-2.2q2.8-13.7 9.1-22.2 6.8-8.5 19.3-13.1 12.4-4.5 28.3-4.5 15.9 0 26.1 3.9 10.3 4 15.4 10.3 5.1 5.7 6.8 14.8c1.1 3.9 1.1 10.2 1.1 19.3v27.8q0 28.5 1.2 35.9 1.7 7.4 5.1 14.2l1.7 2.8h-26.7l-0.6-1.1q-2.3-5.1-3.4-11.4-10.2 8-19.9 11.4-10.7 4-23.2 4zm40.3-62.6q-11.1 3.4-30.7 6.8-12.5 1.8-17.6 4-4.5 1.7-7.4 5.7-2.2 4-2.2 8.5 0 7.4 5.7 12 5.6 5.1 16.4 5.1 11.4 0 20.4-5.1c5.7-2.9 9.7-7.4 12.5-13.1q2.9-6.8 2.9-19.9zm115.2 60.3v-76.2q0-12.5-1.7-18.2-2.3-5.7-7.9-8.5-5.7-4-13.1-4-12.5 0-21.6 7.9-8.5 8-8.5 30.2v68.8h-25v-126.2h22.7v13q13.7-15.9 36.9-15.9 11.4 0 21 4 9.7 4.5 14.8 11.4 4.5 6.8 6.8 15.9 1.1 6.2 1.1 20.4v77.4zm113 0l-39.7-60.9-12 11.4v49.5h-24.9v-172.9h24.9v92.7l46-46h32.9l-48.8 47.7 52.3 78.5z"/>
		</g>
	</g>
</svg>