<svg version="1.2" xmlns="http://www.w3.org/2000/svg" viewBox="0 0 2225 507" width="2225" height="507">
	<title>bank-alfalah-horizontal</title>
	<defs>
		<clipPath clipPathUnits="userSpaceOnUse" id="cp1">
			<path d="m0 595.7l284.88-588.13c4.36-9.06 16.84-10.24 22.8-2.1l274.72 372.6c66.53 90.23 2.22 217.84-109.85 217.98-44.61 0.07-86.4-21.59-112.02-58.08l-47.72-67.95c-16.26-23.06-47.47-29.86-71.83-15.57z"/>
		</clipPath>
		<linearGradient id="g1" x2="1" gradientUnits="userSpaceOnUse" gradientTransform="matrix(-137.477,48.808,-48.928,-137.813,413.256,291.781)">
			<stop offset="0" stop-color="#ee2722"/>
			<stop offset="1" stop-color="#9c1815"/>
		</linearGradient>
		<clipPath clipPathUnits="userSpaceOnUse" id="cp2">
			<path d="m582.44 378.07l-274.76-372.6c-5.96-8.14-18.44-6.96-22.8 2.1l-284.88 588.13 354.73-208.09c24.36-14.27 60.07-7.48 76.32 15.59l47.72 67.89c25.66 36.5 66.36 58.17 110.98 58.12h0.08q-0.01 0 0.04 0c26.34-44.38 28.02-103.04-7.43-151.14z"/>
		</clipPath>
		<linearGradient id="g2" x2="1" gradientUnits="userSpaceOnUse" gradientTransform="matrix(439.979,224.18,-293.863,576.739,152.177,298.979)">
			<stop offset="0" stop-color="#9c1815"/>
			<stop offset=".4" stop-color="#ee2722"/>
			<stop offset="1" stop-color="#ee2722"/>
		</linearGradient>
	</defs>
	<style>
		.s0 { fill: url(#g1) } 
		.s1 { fill: url(#g2) } 
		.s2 { fill: #231f20 } 
		.s3 { fill: #110f0d } 
	</style>

	<!-- ICON: on the left, scaled to 75% so its height matches text proportions (1.83:1 like target PNG) -->
	<g id="icon" transform="translate(30, 30) scale(0.75)">
		<g clip-path="url(#cp1)">
			<path class="s0" d="m0 595.7l284.9-588.1c4.3-9.1 16.8-10.3 22.8-2.1l274.7 372.6c66.5 90.2 2.2 217.8-109.8 218-44.7 0-86.4-21.6-112.1-58.1l-47.7-68c-16.2-23-47.5-29.8-71.8-15.6z"/>
		</g>
		<g clip-path="url(#cp2)">
			<path class="s1" d="m582.4 378.1l-274.7-372.6c-6-8.2-18.5-7-22.8 2.1l-284.9 588.1 354.7-208.1c24.4-14.3 60.1-7.5 76.4 15.6l47.7 67.9c25.6 36.5 66.3 58.2 110.9 58.1h0.1q0 0 0.1 0c26.3-44.4 28-103-7.5-151.1z"/>
		</g>
	</g>

	<!-- TEXT "Bank Alfalah": to the right of icon, bottom-aligned with icon base -->
	<g id="text" transform="translate(607, -437)">
		<path fill-rule="evenodd" class="s2" d="m786.7 910.7c20.5-55.3 51-132 71.2-176.7l-6.6-15.6c8.6-2 18.7-3.4 29.4-4 27.1 62.8 53.3 130.6 76.1 196.3h-28.9l-16.7-48.1h-80.7c-6 16.4-12.4 34-17 48.1zm117.3-68.6c-11.2-30.8-21-56.8-32.2-85.6-10.4 25.4-22.5 55.9-33.8 85.6z"/>
		<path class="s2" d="m1001.4 910.7h-26.5v-176.7c-4-8.4-8.1-19.3-10.1-26.5 10.4-4.6 24.5-8.4 36.6-9.8z"/>
		<path class="s2" d="m1073.5 786.7v124h-26.5v-124h-27.4c-0.3-2.3-0.6-5.7-0.6-7.4 0-2.1 0.3-5.5 0.6-7.8 7.5-1.8 16.4-2.9 27.4-4.1v-18.1c0-34.3 17.5-53.4 48.7-53.4 12.6 0 25.9 2.6 42.9 8.1-1.2 4.9-5.5 16.1-8.9 23.4-21.1-7.5-36.6-11.3-47-11.3-5.8 6.4-9.2 19.9-9.2 35.5v15h47.2v20.1z"/>
		<path fill-rule="evenodd" class="s2" d="m1208.6 894.9c-15 11.2-33.7 18.7-47.8 18.7-24.2 0-40.9-16.7-40.9-40.6 0-24.5 19.8-42.1 49.8-44.2l34.3-2.3v-9.5c0-22.2-9.2-32.8-28.5-32.8-12.1 0-25.4 3.7-38.3 10.3-2.6-4.9-5.2-12.1-6.4-17.3 16.7-9.8 34.9-15 52.8-15 29.9 0 46.1 17.9 46.1 51.1v65.4l16.1 21.7c-6.9 4.6-20.2 10-28.8 12.3zm-4.6-16.1v-33.2c-13 0-41.5 2.1-52.2 3.5-3.4 5.5-5.5 12.4-5.5 19.3 0 15.3 7.5 23.7 21.4 23.7 10.9 0 24.2-4.9 36.3-13.3z"/>
		<path class="s2" d="m1295.4 910.7h-26.5v-176.7c-4.1-8.4-8.1-19.3-10.1-26.5 10.3-4.6 24.5-8.4 36.6-9.8z"/>
		<path fill-rule="evenodd" class="s2" d="m1410.1 894.9c-15 11.2-33.8 18.7-47.9 18.7-24.2 0-40.9-16.7-40.9-40.6 0-24.5 19.9-42.1 49.9-44.2l34.2-2.3v-9.5c0-22.2-9.2-32.8-28.5-32.8-12.1 0-25.3 3.7-38.3 10.3-2.6-4.9-5.2-12.1-6.3-17.3 16.7-9.8 34.8-15 52.7-15 30 0 46.1 17.9 46.1 51.1v65.4l16.1 21.7c-6.9 4.6-20.1 10-28.8 12.3zm-4.6-16.1v-33.2c-13 0-41.5 2.1-52.2 3.5-3.4 5.5-5.4 12.4-5.4 19.3 0 15.3 7.5 23.7 21.3 23.7 10.9 0 24.2-4.9 36.3-13.3z"/>
		<path class="s2" d="m1496.8 786.5c20.2-15.3 40.3-24.3 54.2-24.3 21.6 0 36.9 19.9 36.9 48.5v100h-26.6v-90.5c0-17.6-5.7-31.1-14.9-35.8-15.9 2.6-36.6 11.3-49.6 21.4v104.9h-26.5v-176.7c-4-8.4-8.1-19.3-10.1-26.5 10.4-4.6 24.5-8.4 36.6-9.8z"/>
		<path class="s3" d="m620.4 815.4c-3.3-4.3-3.5-6.5 0.7-10.2 16.3-14.1 32.2-28.8 48.5-42.9 3.4-3 3.5-4.7 0.2-7.7-4.2-4-8.7-7.5-13.3-11-4-3.1-6.7-3.2-10.6 0.8-25.5 25.5-49.9 51.8-74.5 80.5 0-4 0-6.4 0-8.7q0-60.5 0-121c0-8.1-0.1-16.3 0.1-24.5 0.1-3.5-0.9-4.4-4.5-3.9-8.5 1.3-16.9 3.1-25 5.9-16.4 5.7-14.3 3.1-8.4 17.5 5.6 13.5 7.3 26.8 7.2 41.1-0.3 56.7-0.1 113.3-0.1 170 0 1.6 0.1 3.3-0.1 5-0.2 3.1 1.1 4.1 4.2 4.1 7.2-0.2 14.4-0.3 21.6 0 4.3 0.2 5.1-1.4 5.1-5.3-0.2-15.4-0.1-30.8 0-46.1 0-2.3-0.8-4.8 1.3-6.8 7.8-7 15.6-14.1 23.4-21.1 17 23.9 34.8 49.1 52.7 74.3 1.3 1.9 2.1 4.8 4.8 4.8 12.3 0.2 24.6 0.1 38 0.1-24.4-32.5-47.7-63.8-71.3-94.9z"/>
		<path class="s3" d="m486.3 758.2c-8-12-19.1-18.4-33.8-18-10.6 0.3-20.1 4-29.5 8.2-10.9 4.9-20.7 11.5-31.7 18.7 0-7.6-0.2-14.3 0.1-20.8 0.3-4.4-1.3-5.2-5.3-4.5-8.5 1.4-16.9 3.3-24.9 6.3-13.8 5.2-12.2 3.6-7.1 15 6.3 14.4 8 29.1 7.7 44.6-0.6 31.7 0 63.4-0.3 95.1-0.1 5.7 1 8.3 7.3 7.6 5.5-0.5 11.1-0.5 16.5 0 6 0.6 7.6-1.4 7.6-7.4-0.3-35.8-0.1-71.5-0.3-107.3 0-4.7 1.5-7.3 5.4-9.7 12.3-7.5 25.2-13.7 39.1-17.7 13-3.6 17.7-1.4 23.5 11.2 4.5 9.9 5 20.4 5 31 0 31.2 0.1 62.4-0.1 93.6-0.1 5 1.3 6.7 6.4 6.3 6.4-0.4 12.9-0.3 19.4 0 4.1 0.2 5.3-1 5.3-5.2-0.2-37.7 0-75.4-0.3-113.1-0.1-12-3.1-23.7-10-33.9z"/>
		<path fill-rule="evenodd" class="s3" d="m131 900.4c-14.7 6.7-30.1 9.4-46 9.7-23.5 0.5-47 0-70.5 0.4-5.5 0-6.8-1.4-6.8-6.8 0.3-46.6-0.1-93.2 0.3-139.7 0.2-24.3 0.1-48.4-7.5-71.8-1.4-4.4 0-5.2 4.2-5.2 28.5 0.2 57.1 0.1 85.6 0.2 8.7 0.1 17.1 1.9 25.3 5.1 27.8 10.6 40 39.2 29 68.5-4.8 12.9-12.8 23.4-23.5 32.5 7.4 3 14.4 6 20.7 10.6 29.3 21.2 26.4 79.5-10.8 96.5zm-86-113.6c12.2-0.5 24.4-0.1 36.7-0.1 22.2 0 23.6-1 30.9-22.7 0.7-2 1.4-4.1 1.9-6.1 6.3-25.6-5.3-44.2-30.6-47.3-13.8-1.7-27.8-1.2-41.7-1.9-3.7-0.2-3.6 1.8-3.6 4.4 0.1 11.7 0 23.5 0 35.3 0 10.5 0.3 21.1-0.1 31.6-0.2 5.1 0.8 7.1 6.5 6.8zm52.8 23.5c-18.7-3.9-37.7-1.7-56.6-2.4-3.7-0.1-2.5 2.8-2.5 4.7-0.1 10.8-0.1 21.6-0.1 32.3 0 11.3 0.1 22.6 0 33.9 0 2.6 0.2 4.1 3.6 4.5 19.8 2.3 39.6 3.4 59.5 2.6 17.4-0.6 23-5.5 26.2-22.7 0.5-2.6 1-5.2 1.1-7.8 1.2-23.1-6.8-40.1-31.2-45.1z"/>
		<path fill-rule="evenodd" class="s3" d="m325.2 889.6c6.8 9 6.9 9.2-3.2 13.8-6.3 2.9-12.8 5.2-19.2 7.9-3.2 1.3-5.2 0.6-6.6-2.9-2.1-5.3-4.8-10.4-7.5-16-13.7 9.5-28 16.8-44.2 20.1-23.3 4.8-45.8-6.2-54-26.6-9.1-22.7-0.7-47.4 20.2-59.9 12.1-7.3 25.5-9.4 39.2-10.4 9.5-0.6 19.1-1.3 28.7-1.6 3.5-0.1 5.1-0.8 5-4.8-0.1-6.9-0.3-13.9-1.7-20.7-3.4-15.9-15.2-23.8-33.2-22.9-12.9 0.6-25.1 3.8-36.5 9.5-4.4 2.1-6.3 1.5-7.9-3-6.3-18.1-7.5-13.9 8.6-21.6 16.3-7.7 33.5-11 51.6-10.2 27.4 1.2 45.6 18.4 47.7 45.9 2.1 25.7 0.9 51.4 0.9 77 0 7.4 1.4 13.6 6.4 19 2.2 2.2 3.8 4.9 5.7 7.4zm-41.7-31.6c-0.2-1.1 0-2.4 0-3.6 0-4.1-0.5-8.2 0.1-12.2 0.8-6.1-2-7-7.2-6.6-13.4 1.1-26.7 2-40.1 2.7-13.3 0.8-16 3.2-17.8 16.7-0.3 1.7-0.6 3.4-0.7 5-1.4 19.5 10.2 30.4 29.4 27.9 7.2-0.9 13.8-3.4 20.6-5.8 11.6-4.1 18.7-10.7 15.7-24.1z"/>
	</g>
</svg>
