<svg version="1.2" xmlns="http://www.w3.org/2000/svg" viewBox="0 0 1590 1320" width="1590" height="1320">
	<title>mcb-logo-svg</title>
	<style>
		.s0 { fill: #50b848 } 
		.s1 { fill: #005baa } 
	</style>
	<path id="Layer" class="s0" d="m3 1225.5h1573.9v93.6h-1573.9z"/>
	<path id="Layer" class="s0" d="m790.5 259.3c167.4-78.1 346-129.8 529.3-153.3-139.7-64.8-325.7-106-530.2-106-204.5 0-390 40.4-530.2 106 183.5 23.5 362.4 75.2 530.2 153.3"/>
	<path id="Layer" class="s0" d="m789.6 338.4c-199.6-97.6-416.1-155.8-637.7-171.5-45.1 30.3-83.7 69.5-113.3 115.2 262.2 1.4 520.1 67.2 751 191.4 231.2-124.2 489.3-189.9 751.8-191.4-29.4-45.8-68.1-85-113.4-115.2-221.9 15.7-438.6 73.9-638.4 171.5z"/>
	<path id="Layer" class="s0" d="m826.1 646.1c0.6-35.9 11.7-70.8 31.9-100.4 20.3-29.6 48.8-52.7 82-66.3 193.5-84.1 402.4-127.3 613.4-126.7h17.4c3.6 15.5 5.5 31.4 5.6 47.4v372.8h-751.2z"/>
	<path id="Layer" class="s0" d="m754.1 646.1c-0.6-35.9-11.7-70.8-32-100.4-20.2-29.6-48.7-52.6-81.9-66.3-193.5-84.1-402.4-127.3-613.4-126.7h-17.7c-3.5 15.5-5.2 31.4-5.3 47.4v372.8h751.5z"/>
	<path id="Layer" class="s1" d="m581 883.8c0-31.9 59.2-15.2 59.2-29 0-4.2-3-5.4-10.6-5.4-27.6 0-67.6 0-119.2 0h-65.8l-112.2 186.1-113.2-186.1h-67c-51.3 0-91.6 0-119.2 0-7.5 0-10.4 1.2-10.4 5.4 0 15.2 59.2-2.9 59.2 29v199.2c0 73.6-81.8 53.7-81.8 69 0 4.3 4.8 6.1 13.5 6.1 28 0 54.1-0.9 79.5-0.9 25.5 0 51.2 0.9 79.7 0.9 8.3 0 13.5-1.8 13.5-6.1 0-15.1-82 4.6-82-69v-184.9h1.5l158.5 255.8c1 2 2.5 3.7 4.3 4.9 1.9 1.2 4.1 1.9 6.3 2 4.9 0 6.4-2.7 9.1-6.9l154.2-258.3h1.4v228.1c0 31.5-59 15.2-59 28.9 0 4 2.6 5.5 10.5 5.5 27.4 0 67.6-0.9 118.9-0.9 51.4 0 90.9 0.9 119.2 0.9 7.6 0 10.6-1.5 10.6-5.5 0-15.1-59.2 2.6-59.2-28.9z"/>
	<path id="Layer" class="s1" d="m1093.6 1050.7c0-4.1-1.9-6.8-7.7-6.8-13.3 0-7.6 15.1-32.6 40.7-39.2 41.1-92.5 65.7-149.2 69-69.7 0-109.1-35.3-109.1-150 0-81.1 27.5-149.7 109.1-149.7 53.8 0 102.4 30.3 136.3 65.5 40.2 42.1 32.5 56.3 45.5 56.3 6.7 0 6.7-3.5 6.7-8.3v-108.2c0-7.3-5.2-9.1-10.2-9.1-16 0-4.8 20.9-29.5 20.9-33.8 0-79-28.3-157.9-28.3-133.8 0-254.8 62.7-254.8 160.9 0 98.1 108.3 160.7 257.5 160.7 75.8 0 131.8-24.1 161.4-24.1 19.7 0 13.3 17 26.6 17 5 0 7.8-2.7 7.8-8.8z"/>
	<path id="Layer" fill-rule="evenodd" class="s1" d="m1174.1 884.1c0-31.9-59.3-13.8-59.3-29 0-4.2 2.9-5.4 10.8-5.4 27.9 0 68.5 0 118.8 0 50.2 0 95.7 0 141.1 0 137.4 0 181.8 31.5 181.8 73.6 0 42.1-56.5 69.4-165.7 69.4v1.9c91 0.8 188.2 12 188.2 72.6 0 60.6-63.4 90.9-193.8 90.9-51.4 0-100.1-0.9-151.5-0.9-51.4 0-91.5 0.9-118.8 0.9-7.8 0-10.7-1.5-10.7-5.5 0-13.7 59.2 2.6 59.2-28.9zm140.3 102.7h33.2c51.5 0 69.7-7 69.7-66.8 0-51-9.9-60.6-60.6-60.6h-41.7zm0.6 10.5v132.8c0 11.2 7.1 16.4 35.3 16.4 64.2 0 84.4-4.6 84.4-74.6 0-55.4-16.1-74-87.9-74z"/>
</svg>