<svg version="1.1" width="2500" height="758" viewBox="4.969 4.777 206.063 62.446" xmlns="http://www.w3.org/2000/svg"><path d="M36.15 5.077c17.08 0 30.924 13.844 30.924 30.922 0 17.08-13.844 30.924-30.923 30.924C19.073 66.923 5.228 53.078 5.228 36S19.073 5.078 36.151 5.078" fill="#ffffff" fill-rule="evenodd"/><path d="M7.91 36.027c0-15.594 12.64-28.234 28.233-28.234s28.234 12.64 28.234 28.234c0 15.593-12.641 28.234-28.234 28.234S7.91 51.62 7.91 36.027z" fill="#711871" fill-rule="evenodd" stroke="#711871" stroke-width=".415" stroke-linecap="butt" stroke-linejoin="miter" stroke-dasharray="none"/><path d="M17.912 36.027c0-10.07 8.162-18.231 18.231-18.231 10.068 0 18.23 8.162 18.23 18.23 0 10.07-8.162 18.232-18.23 18.232-10.069 0-18.23-8.162-18.23-18.231z" fill="#ffffff" fill-rule="evenodd" stroke="#711871" stroke-width=".415" stroke-linecap="butt" stroke-linejoin="miter" stroke-dasharray="none"/><path d="M18.986 36.027c0-9.477 7.682-17.158 17.157-17.158S53.3 26.549 53.3 36.027c0 9.476-7.682 17.158-17.157 17.158s-17.157-7.682-17.157-17.158z" fill="none" stroke="#007733" stroke-width=".415" stroke-linecap="butt" stroke-linejoin="miter" stroke-dasharray="none"/><path d="m24.72 45.702-1.5-3.55 4.167-7.859h4.639l4.166 7.86-1.5 3.55zm8.422-23.947L27.82 32.582h4.723l3.709-7.178 3.712 7.178h4.722l-5.321-10.827Zm4.68 23.947-1.5-3.55 4.167-7.859h4.639l4.166 7.86-1.499 3.55z" fill="#007733" fill-rule="evenodd"/><path d="m52.493 20.028.905-2.73-2.628 1.178zm-5.914-1.56.545-.606.499.45 5.849-2.362 1.434 1.291-1.754 6.05.498.448-.546.605-2.537-2.284.546-.606.752.678.389-1.223-2.327-2.095-1.184.506.76.685-.545.606zm7.138 6.995.766-.28.334.919 4.56-1.66-.333-.918.765-.28 1.07 2.944-3.718 4.686 4.029-1.453-.34-.93.767-.28 1.136 3.12-.766.279-.314-.862-5.327 1.939-.712-1.958 3.823-4.8-4.157 1.5.318.875-.766.279zm-15.431-9.389.241-.966 5.672-3.43-3.13-.78-.313 1.256-1.29-.322.503-2.02 6.236 1.554-.24.967-5.741 3.412 3.427.855.326-1.309 1.29.321-.516 2.074zM29.27 17.19l-.142-.802.963-.17-.843-4.78-.962.17-.142-.803 6.863-1.21.345 1.953-1.276.225-.202-1.15-3.038.535.343 1.944 1.217-.215-.146-.829 1.101-.195.43 2.435-1.102.194-.141-.802-1.218.214.36 2.033 3.036-.535-.217-1.23 1.276-.225.358 2.033zm-7.6 4.98-.478-.66.791-.574-2.853-3.927-.791.574-.479-.659 5.638-4.097 1.166 1.605-1.048.761-.687-.945-2.495 1.813 1.16 1.597 1.001-.727-.496-.68.905-.658 1.453 2-.904.657-.479-.66-1 .728 1.213 1.67 2.495-1.814-.734-1.01 1.047-.762 1.214 1.671zm-1.298 1.105-1.428 3.063-.739-.345.38-.81-4.392-2.049 4.214 4.355-.627 1.345-6.01-.503 4.386 2.058.353-.758.74.345-1.335 2.86-.739-.346.404-.864-4.399-2.05-.403.863-.739-.344 1.468-3.148 5.296.535-3.804-3.735 1.498-3.212.74.344-.404.865 4.398 2.051.403-.864zm4.092 28.961q.621.485.863.788.25.311.387.671t.059.747a1.5 1.5 0 0 1-.292.68q-.792 1.012-2.213.156.65.507.738 1.196.104.69-.304 1.211-.295.378-.782.504a1.77 1.77 0 0 1-.96-.014 3.1 3.1 0 0 1-.91-.424 17 17 0 0 1-.977-.718l-2.94-2.298.507-.648.76.594 2.983-3.818-.76-.594.5-.642zm-1.81-.38-1.198 1.534.742.58q.38.297.61.442.245.146.48.17.243.015.474-.09a.93.93 0 0 0 .587-.77.66.66 0 0 0-.107-.476 2 2 0 0 0-.337-.39 8 8 0 0 0-.407-.34l-.315-.247zm-2.134 4.492q.434.34.664.45.237.117.493.132a.9.9 0 0 0 .477-.075.94.94 0 0 0 .383-.298q.357-.457.177-.839-.18-.383-.34-.54-.15-.153-.465-.399l-.111-.087-.844-.66-1.288 1.65zm9.84 2.369-.334-2.857-1.885 2.178zm-6.02 1.086.238-.78.642.197 4.303-4.613 1.846.565.966 6.223.641.196-.238.779-3.265-.998.239-.78.968.297-.165-1.272-2.995-.916-.859.959.98.299-.239.779zm11.085 2.683-.1-.809.97-.119-.591-4.818-.97.12-.1-.81 3.109-.38 3.729 4.677-.51-4.252-.982.12-.1-.809 3.296-.404.099.81-.911.11.69 5.627-2.067.254-3.816-4.805.527 4.387.923-.113.099.81zm13.315-3.059-.49-.651.77-.581-2.921-3.876-.771.58-.49-.65 2.82-2.126.49.65-.76.575 1.302 1.728.672-3.215-.63.474-.491-.652 2.595-1.954.49.65-.507.383-.739 3.266 3.792.51.526-.395.49.65-2.697 2.034-.491-.651.667-.503-3.595-.488 1.537 2.039.76-.573.49.65z" fill="#ffffff" fill-rule="evenodd"/><path d="M6.334 36.027c0-16.464 13.346-29.81 29.81-29.81S65.95 19.563 65.95 36.027s-13.344 29.81-29.808 29.81S6.334 52.49 6.334 36.027z" fill="none" stroke="#007733" stroke-width="1.246" stroke-linecap="butt" stroke-linejoin="miter" stroke-dasharray="none"/><path d="M103.413 58.04c0 .042.051.071.12.087l.068-.005c.002-.015.008-.023.008-.038 0-.047-.196-.092-.196-.045" fill="#ffffff" fill-rule="evenodd"/><path d="M103.413 58.04c0 .042.051.071.12.087l.068-.005c.002-.015.008-.023.008-.038 0-.047-.196-.092-.196-.045" fill="#e2b62f" fill-rule="evenodd"/><path d="M115.747 56.79c0 .015.035.021.064.021.024 0 .047-.009.047-.021 0-.015.013-.03-.008-.036-.042-.01-.103.01-.103.036" fill="#ffffff" fill-rule="evenodd"/><path d="M115.747 56.79c0 .015.035.021.064.021.024 0 .047-.009.047-.021 0-.015.013-.03-.008-.036-.042-.01-.103.01-.103.036" fill="#e2b62f" fill-rule="evenodd"/><path d="M113.65 56.865c-.03-.013-.039-.037-.077-.037-.058 0-.064.044-.064.077 0 .02.03.026.03.044 0 .021-.04.025-.069.04l.052-.028a.24.24 0 0 0 .107.023c.042 0 .09-.012.09-.036 0-.033-.03-.06-.069-.083" fill="#ffffff" fill-rule="evenodd"/><path d="M113.65 56.865c-.03-.013-.039-.037-.077-.037-.058 0-.064.044-.064.077 0 .02.03.026.03.044 0 .021-.04.025-.069.04l.052-.028a.24.24 0 0 0 .107.023c.042 0 .09-.012.09-.036 0-.033-.03-.06-.069-.083" fill="#e2b62f" fill-rule="evenodd"/><path d="M103.067 58.059c-.025-.028-.05-.051-.103-.051-.033 0-.047.015-.077.022-.056.013-.128.016-.128.052 0 .05.08.085.169.085.078 0 .173-.014.173-.059 0-.017-.02-.033-.034-.05" fill="#ffffff" fill-rule="evenodd"/><path d="M103.067 58.059c-.025-.028-.05-.051-.103-.051-.033 0-.047.015-.077.022-.056.013-.128.016-.128.052 0 .05.08.085.169.085.078 0 .173-.014.173-.059 0-.017-.02-.033-.034-.05" fill="#e2b62f" fill-rule="evenodd"/><path d="M107.19 57.641h-.096l-.07.03.022-.005c-.02.015-.042.024-.042.043 0 .058.098.094.199.094.062 0 .118-.026.118-.06 0-.05-.044-.102-.13-.102" fill="#ffffff" fill-rule="evenodd"/><path d="M107.19 57.641h-.096l-.07.03.022-.005c-.02.015-.042.024-.042.043 0 .058.098.094.199.094.062 0 .118-.026.118-.06 0-.05-.044-.102-.13-.102" fill="#e2b62f" fill-rule="evenodd"/><path d="M116.043 56.515c-.04 0-.081.014-.081.037 0 .029.046.05.098.05.034 0 .064-.013.064-.033 0-.028-.033-.054-.081-.054" fill="#ffffff" fill-rule="evenodd"/><path d="M116.043 56.515c-.04 0-.081.014-.081.037 0 .029.046.05.098.05.034 0 .064-.013.064-.033 0-.028-.033-.054-.081-.054" fill="#e2b62f" fill-rule="evenodd"/><path d="M116.627 56.777c.06 0 .064-.047.064-.08 0-.046.046-.069.046-.114v-.022l-.09.071c.039-.035.06-.06.06-.103 0-.029-.05-.049-.101-.049-.088 0-.151.046-.151.096 0 .055.022.088.069.135.03.03.043.066.103.066" fill="#ffffff" fill-rule="evenodd"/><path d="M116.627 56.777c.06 0 .064-.047.064-.08 0-.046.046-.069.046-.114v-.022l-.09.071c.039-.035.06-.06.06-.103 0-.029-.05-.049-.101-.049-.088 0-.151.046-.151.096 0 .055.022.088.069.135.03.03.043.066.103.066" fill="#e2b62f" fill-rule="evenodd"/><path d="M118.721 56.41q.266.113 0 .282c-.132-.107-.124-.229 0-.282" fill="#ffffff" fill-rule="evenodd"/><path d="M118.721 56.41q.266.113 0 .282c-.132-.107-.124-.229 0-.282" fill="#e2b62f" fill-rule="evenodd"/><path d="M121.197 56.53a.2.2 0 0 0-.152-.06c-.074 0-.169.007-.169.05 0 .06.076.115.182.115.087 0 .14-.056.14-.106" fill="#ffffff" fill-rule="evenodd"/><path d="M121.197 56.53a.2.2 0 0 0-.152-.06c-.074 0-.169.007-.169.05 0 .06.076.115.182.115.087 0 .14-.056.14-.106" fill="#e2b62f" fill-rule="evenodd"/><path d="M123.827 56.43c-.03-.005-.038-.02-.067-.02-.083 0-.11.056-.11.103 0 .05.07.093.159.093.056 0 .103-.025.103-.057q.001-.07-.085-.119" fill="#ffffff" fill-rule="evenodd"/><path d="M123.827 56.43c-.03-.005-.038-.02-.067-.02-.083 0-.11.056-.11.103 0 .05.07.093.159.093.056 0 .103-.025.103-.057q.001-.07-.085-.119" fill="#e2b62f" fill-rule="evenodd"/><path d="M127.398 56.01q.004-.007.006-.015c0-.04-.064-.07-.136-.07-.074 0-.163.013-.163.055 0 .049.093.074.18.074a.18.18 0 0 0 .112-.044z" fill="#ffffff" fill-rule="evenodd"/><path d="M127.398 56.01q.004-.007.006-.015c0-.04-.064-.07-.136-.07-.074 0-.163.013-.163.055 0 .049.093.074.18.074a.18.18 0 0 0 .112-.044z" fill="#e2b62f" fill-rule="evenodd"/><path d="M129.541 55.705a.24.24 0 0 0-.182-.074c-.059 0-.113.024-.113.057 0 .026.041.036.065.056.031.03.055.059.115.059.075 0 .115-.055.115-.098" fill="#ffffff" fill-rule="evenodd"/><path d="M129.541 55.705a.24.24 0 0 0-.182-.074c-.059 0-.113.024-.113.057 0 .026.041.036.065.056.031.03.055.059.115.059.075 0 .115-.055.115-.098" fill="#e2b62f" fill-rule="evenodd"/><path d="M129.117 55.706a.2.2 0 0 0-.16-.07c-.058 0-.114.022-.114.055 0 .036.034.053.065.084.035.033.063.064.131.064.045 0 .078-.025.078-.051z" fill="#ffffff" fill-rule="evenodd"/><path d="M129.117 55.706a.2.2 0 0 0-.16-.07c-.058 0-.114.022-.114.055 0 .036.034.053.065.084.035.033.063.064.131.064.045 0 .078-.025.078-.051z" fill="#e2b62f" fill-rule="evenodd"/><path d="M128.708 55.71c-.028-.046-.085-.08-.17-.08-.124 0-.244.048-.244.119 0 .048.106.059.189.059.1 0 .229-.011.229-.068 0-.01-.006-.021-.004-.03" fill="#ffffff" fill-rule="evenodd"/><path d="M128.708 55.71c-.028-.046-.085-.08-.17-.08-.124 0-.244.048-.244.119 0 .048.106.059.189.059.1 0 .229-.011.229-.068 0-.01-.006-.021-.004-.03" fill="#e2b62f" fill-rule="evenodd"/><path d="M130.087 55.712a.25.25 0 0 0-.164-.05c-.058 0-.116.02-.116.053 0 .043.08.066.157.066.067 0 .132-.03.123-.069" fill="#ffffff" fill-rule="evenodd"/><path d="M130.087 55.712a.25.25 0 0 0-.164-.05c-.058 0-.116.02-.116.053 0 .043.08.066.157.066.067 0 .132-.03.123-.069" fill="#e2b62f" fill-rule="evenodd"/><path d="M130.934 55.778c-.024 0-.028-.021-.052-.021-.03 0-.073.003-.073.02 0 .027.054.038.1.038.018 0 .033-.008.033-.02 0-.006.005-.017-.008-.017" fill="#ffffff" fill-rule="evenodd"/><path d="M130.934 55.778c-.024 0-.028-.021-.052-.021-.03 0-.073.003-.073.02 0 .027.054.038.1.038.018 0 .033-.008.033-.02 0-.006.005-.017-.008-.017" fill="#e2b62f" fill-rule="evenodd"/><path d="M125.937 55.244c-.066 0-.119.032-.119.069s.034.077.1.077c.056 0 .098-.03.098-.06 0-.039-.014-.086-.08-.086" fill="#ffffff" fill-rule="evenodd"/><path d="M125.937 55.244c-.066 0-.119.032-.119.069s.034.077.1.077c.056 0 .098-.03.098-.06 0-.039-.014-.086-.08-.086" fill="#e2b62f" fill-rule="evenodd"/><path d="M113.817 56.603c-.102.013-.235.01-.235.07 0 .02.004.03.004.049l.068.001c.097 0 .184-.038.184-.093 0-.008-.017-.02-.02-.027z" fill="#ffffff" fill-rule="evenodd"/><path d="M113.817 56.603c-.102.013-.235.01-.235.07 0 .02.004.03.004.049l.068.001c.097 0 .184-.038.184-.093 0-.008-.017-.02-.02-.027z" fill="#e2b62f" fill-rule="evenodd"/><path d="M114.59 56.617c.486 0 .273.023.572.322 0 0-.312.003-.403-.07.12-.015.162-.04.165-.077l-.137-.081c-.137.045-.073.238-.28.238s-.071-.055-.124-.095c-.053.04-.041.07-.053.137h-.384c-.097-.103-.101-.208-.06-.303.042.047.03.126.092.167.412-.088.219-.238.612-.238" fill="#ffffff" fill-rule="evenodd"/><path d="M114.59 56.617c.486 0 .273.023.572.322 0 0-.312.003-.403-.07.12-.015.162-.04.165-.077l-.137-.081c-.137.045-.073.238-.28.238s-.071-.055-.124-.095c-.053.04-.041.07-.053.137h-.384c-.097-.103-.101-.208-.06-.303.042.047.03.126.092.167.412-.088.219-.238.612-.238" fill="#e2b62f" fill-rule="evenodd"/><path d="M121.786 55.263c-.063 0-.137.014-.137.05 0 .054.08.075.15.111.037-.042.036-.16-.013-.16" fill="#ffffff" fill-rule="evenodd"/><path d="M121.786 55.263c-.063 0-.137.014-.137.05 0 .054.08.075.15.111.037-.042.036-.16-.013-.16" fill="#e2b62f" fill-rule="evenodd"/><path d="M122.525 55.259c-.054.007-.105.025-.114.058v.024c.025.017.04.037.079.037.061 0 .101-.035.101-.07 0-.024-.037-.033-.066-.05" fill="#ffffff" fill-rule="evenodd"/><path d="M122.525 55.259c-.054.007-.105.025-.114.058v.024c.025.017.04.037.079.037.061 0 .101-.035.101-.07 0-.024-.037-.033-.066-.05" fill="#e2b62f" fill-rule="evenodd"/><path d="M125.212 55.307c-.015-.007-.023-.016-.044-.016-.022 0-.045.008-.045.02 0 .02.022.041.058.041.028 0 .029-.029.03-.046" fill="#ffffff" fill-rule="evenodd"/><path d="M125.212 55.307c-.015-.007-.023-.016-.044-.016-.022 0-.045.008-.045.02 0 .02.022.041.058.041.028 0 .029-.029.03-.046" fill="#e2b62f" fill-rule="evenodd"/><path d="m123.623 55.293.56.053c.01.062.01.133-.198.133-.206 0-.165-.047-.362-.047z" fill="#ffffff" fill-rule="evenodd"/><path d="m123.623 55.293.56.053c.01.062.01.133-.198.133-.206 0-.165-.047-.362-.047z" fill="#e2b62f" fill-rule="evenodd"/><path d="M124.49 55.575c.176.049.406.094.613.094s0-.094.207-.094.443.1.538.166c-.095.063-.29.07-1.184.068-.153.09-.145.226-.243.33-.105.004-.134-.05-.187-.091-.054.04-.124.118-.121.08l-.147-.082c-.063.002-.117.09-.236.144-.113-.107-.034-.19-.034-.307 0-.12-.332-.142-.32-.253a4.3 4.3 0 0 1 1.114-.055" fill="#ffffff" fill-rule="evenodd"/><path d="M124.49 55.575c.176.049.406.094.613.094s0-.094.207-.094.443.1.538.166c-.095.063-.29.07-1.184.068-.153.09-.145.226-.243.33-.105.004-.134-.05-.187-.091-.054.04-.124.118-.121.08l-.147-.082c-.063.002-.117.09-.236.144-.113-.107-.034-.19-.034-.307 0-.12-.332-.142-.32-.253a4.3 4.3 0 0 1 1.114-.055" fill="#e2b62f" fill-rule="evenodd"/><path d="M125.934 55.636c.121-.014.204.08.411.08.507 0 1.154-.213 1.735.08-1.479-.032-1.703.127-2.146-.16" fill="#ffffff" fill-rule="evenodd"/><path d="M125.934 55.636c.121-.014.204.08.411.08.507 0 1.154-.213 1.735.08-1.479-.032-1.703.127-2.146-.16" fill="#e2b62f" fill-rule="evenodd"/><path d="M119.548 56.7c-.121.015-.316-.04-.478-.142v-.174c.22.101.386.243.478.316" fill="#ffffff" fill-rule="evenodd"/><path d="M119.548 56.7c-.121.015-.316-.04-.478-.142v-.174c.22.101.386.243.478.316" fill="#e2b62f" fill-rule="evenodd"/><path d="M118.582 56.716c.015 0 .017-.012.017-.021 0-.028-.02-.06-.068-.06-.062 0-.142.006-.142.042 0 .035.072.049.133.049.025 0 .035-.01.06-.01" fill="#ffffff" fill-rule="evenodd"/><path d="M118.582 56.716c.015 0 .017-.012.017-.021 0-.028-.02-.06-.068-.06-.062 0-.142.006-.142.042 0 .035.072.049.133.049.025 0 .035-.01.06-.01" fill="#e2b62f" fill-rule="evenodd"/><path d="M125.049 55.973c-.058-.049-.078-.106-.18-.106h-.067v.02c0 .027.034.039.06.06.052.043.083.079.172.09.018-.022.015-.039.015-.064" fill="#ffffff" fill-rule="evenodd"/><path d="M125.049 55.973c-.058-.049-.078-.106-.18-.106h-.067v.02c0 .027.034.039.06.06.052.043.083.079.172.09.018-.022.015-.039.015-.064" fill="#e2b62f" fill-rule="evenodd"/><path d="M125.469 55.94c-.02-.02-.034-.04-.072-.04-.03 0-.05.017-.05.033 0 .029.01.053.05.072.037-.02.071-.035.071-.065" fill="#ffffff" fill-rule="evenodd"/><path d="M125.469 55.94c-.02-.02-.034-.04-.072-.04-.03 0-.05.017-.05.033 0 .029.01.053.05.072.037-.02.071-.035.071-.065" fill="#e2b62f" fill-rule="evenodd"/><path d="M126.343 53.139c.147.075.132.051.362.013.208-.036.038.108.557 0 .205-.042 1.921.007 2.138.007.076 0 .522 0 .576.158l.238-.13c.11.003.128.012.263.018.068.072.214 0 .268.004.068.068.222.053.283.017.504.033.938.034 1.074.034.217 0-.043.116.173.116.218 0 .176-.097.392-.097.24 0 .815.024 1.018.108 0 0 .267.15.256.006l.348-.071.174.089c-.073.125-.186.194.03.292-.022-.023.063-.127.076-.248h.743l.16.095c.052-.042.04-.099.257-.099s.54.252.861.349c.063-.043.237-.093.458-.199.027.074.014.155.087.2h.576c.071-.045.071-.143.2-.2.247.458 1.223.15 1.84.538.054.089-.369-.102-.483.025-.07.077-.206-.099-.423-.099s-.48.036-.798.03c-.058 0 .073.25-.199.2-.12-.11.16-.147.05-.253-.078-.043-.317.027-.373-.015-.074.004.031.277-.043.267-.256.008-.112-.199-.199-.182-.089-.001-.02.11-.086.16-.22.053.013-.222-.323-.21-.065-.003-.13.141-.016.196.266-.055.184.239.055.235-.32-.045-.17.23-.289.224-.162-.027-.036-.163-.175-.265-.012-.093.148 0 .23-.042l-.015-.131c-.05.008-.293-.095-.44-.1-.072.136.07.39.033.564-.168-.128-.38-.316-.342-.506-.168.021-.052.237-.31.196-.18-.046.246-.22 0-.417-.198-.015-.014.08-.027.146-.116.007-.282-.015-.347-.02 0 0-.087-.052-.087.071 0 .125.142.036.142.16 0 .056-.118.04-.14.092-.025.066.09.246-.072.195-.135-.057-.152-.172-.21-.214-.15-.002.077.24-.249.21-.102.002-.119-.043-.217-.115-.02-.03.018-.059.238.002.127.017-.013-.12.05-.177a.9.9 0 0 0 .284-.138c-.074-.032.11-.114-.107-.119-.37-.006-.505.517-.8.532-.204-.047-.041-.394-.103-.529-.226-.02-.124.328-.148.518q-.254.076-.358.005a1.1 1.1 0 0 1-.318-.305c-.05.042.022.256.022.256-.189.055-.66.027-1.523-.028-.521-.034-.226-.156-.455-.252-.049.051-.485.254-.691.254-.207 0-.436-.053-4.567-.023-.203 0-.39-.044-.612-.042-1.533.015-1.754.046-2.11.082-.13.013-.322.1-.552.11-.097.005-.14-.08-.274-.076-.04 0-.124.055-.166.057-.053 0-.115-.057-.174-.057-.062 0-.096.045-.165.047-.108 0-.251-.064-.378-.064-.088 0-.169.123-.387.123-.216 0-.05-.074-.267-.074-.17 0-.296-.01-.42-.008-.084 0-.179.127-.27.146-.05.01-.28-.093-.339-.074-.095.031-.015.072-.144.135l-.199-.112c-.053.042-.072.083-.29.083-.216 0-.074-.07-.292-.07-.216 0-.19.122-.407.122-.218 0-.004-.082-.22-.082-.15 0-.197.101-.28.106-.129.01-.281-.094-.341-.08-.078.018-.148.114-.337.126-.11.007-.48-.086-.7-.086-.108 0-.244.192-.276.192-.218 0-.078-.13-.294-.13-.218 0-.176.172-.392.172-.218 0-.14-.124-.357-.124-.087 0-.054.09-.14.129-.076.034-.432-.015-.498.025-.046.026.07.083.03.102.042.019.277.006.51-.007.04-.002.034.02.072.017.029-.002.1-.027.129-.029.102-.005.191-.01.25-.01l.763-.035.164.017.058-.029.35-.015s.351-.068.38-.066c.009 0 .113.045.303.038l.409-.019c.015 0 .068.047.085.045.027 0 .017-.049.044-.05l.51-.022q.41-.105.409-.02-.148.194.015.263s-.021.047.195.047c.218 0 .23-.043.305-.074-.074-.032-.161-.132-.26-.204.196-.067.52-.12.738-.12.216 0 .434.05.642.06-.123.289.16.289.356.289.216 0 .402-.1.726-.05.068-.043.142-.075.148-.111-.156-.042-.302-.038-.858.006-.016-.07-.09-.052-.19-.124.29-.068.64-.068.995-.12l1.605-.025q.606-.064.265.096a3.3 3.3 0 0 1-.695.159q-.419.117.236.12 1.066.09 1.62 0c.218-.002.664-.1.88-.1.217 0 .174.049.291.056-.301.085-.144.364-.284.34-.125-.056-.298-.105-.354-.149-.057.044-.173.05-.317.044.013.032.1.13.087.199-.117.006-.174 0-.291.055-.118-.055 0-.298-.218-.298-.694 0-1.082.122-1.5.446-.105.002-.136-.055-.192-.097l-.177.1c-.202-.107-.445-.151-.681-.2-.078.049-.402.299-.792.299-.217 0-.291-.108-.347-.15-.163-.011.08.133-.057.141-.35.07-.271-.19-.362-.093-.061.134.027.331-.108.549-.038-.074-.025-.106-.081-.15-.056.044-.044.126-.06.194q-.407.071-.418-.065c.288-.142.313-.367.434-.45l-.144-.078c-.637.106-.252.35-.495.597-.206-.05-.216-.154-.4-.262-.003-.06.175-.07.194-.155v-.078s-.11.025-.137.097c-.134-.055-.532-.362-.614-.247-.066.042-.14.125-.153.192-.118.007-.204-.042-.695-.05-.123-.001.12.57 0 .548-.554-.013-.25-.333-.652-.491-.074 0-.121.086-.224.195-.11.004-.197-.096-.413-.096-.218 0-.642.1-.966.14-.3-.015.044.474-.017.455-.133-.055-.123-.15-.27-.197-.063.043.037.125.024.193a.48.48 0 0 1-.292-.093c-.055.042-.044.199-.26.199-.218 0-.473-.064-.527-.15-.05.044-.037.076-.05.143-.378.007-.823.056-1.149.007l-.204.097c-.023-.072-.086-.15-.233-.197-.063.043.079.248-.139.248-.216 0-.042-.099-.26-.099-.716 0-7.114.753-8.177.84.002.011.132.093-.095.23-.093.092-.313.018-.224-.077.17-.093.06-.16-.092-.123-.57.074-.165.243-.307.277-.313.02-.334-.178-.413-.158-.091.11.17.224-.317.273-.106-.057-.078-.231-.14-.274-.241-.012-.347.08-.35.263-.097.057-.103.127-.32.127s-.194-.099-.412-.099c-.015 0-.12.144-.602.214-.554.078-1.507.084-1.704.084-1.216 0-1.174-.874-1.174-1.203 0-.864.445-2.66 3.18-2.66l1.126-.048 15.264-1.142 6.071-.177.2.042.23-.066z" fill="#e2b62f" fill-rule="evenodd"/><path d="M112.208 31.378v-.277q0-1.665-.59-2.414-.559-.75-1.944-.749-1.414 0-2.209.86-.766.861-.766 2.58zm-5.598 1.582q0 2.663.707 3.801.736 1.137 2.652 1.137 1.562 0 2.652-.776 1.119-.806 1.531-2.248h.648q-.883 3.718-5.185 3.717-2.445 0-4.095-1.525-1.65-1.526-1.65-3.774 0-2.47 1.68-4.16 1.679-1.694 4.153-1.693 2.27 0 3.595 1.22 1.355 1.194 1.561 3.496h-8.248zm21.17 5.66q-1.502 0-2.386-.666-.855-.693-.855-1.803 0-1.86 1.886-2.941 1.916-1.083 5.42-1.082v-2.609q0-1.553-2.327-1.553-1.001-.001-1.68.334-.676.304-.676.61.294.277.559.582.265.306.265.694 0 .526-.353.86-.324.305-.825.305-1.238 0-1.238-1.304 0-1.11 1.238-1.86 1.266-.749 3.388-.749 2.269 0 3.094.667.825.666.825 2.275v6.049q0 .582.088.804.118.222.5.222.796 0 1.032-1.026l.47.055q-.087.971-.764 1.554-.65.553-1.651.553-1.71.001-1.885-1.774-.53.803-1.68 1.304a6 6 0 0 1-2.445.498m-1.001-3.163q0 .915.589 1.499.589.582 1.62.582 1.237 0 2.033-.582.825-.584.825-1.61v-2.608q-2.475 0-3.771.694t-1.296 2.025m-52.627 2.137h2.12v-16.84h-2.12v-.695h5.833l4.096 13.485 4.36-13.485h5.686v.694h-2.269v16.841h2.269v.694h-7.218v-.694h2.18v-16.59h-.117l-5.598 17.284h-.737l-5.214-17.285h-.237v16.591h2.181v.694h-5.215z" fill="#1b1918" fill-rule="evenodd"/><path d="M100.874 31.378v-.277q0-1.665-.588-2.414-.561-.75-1.946-.749-1.413 0-2.209.86-.766.861-.766 2.58zm-5.598 1.582q0 2.663.707 3.801.736 1.137 2.652 1.137 1.563 0 2.651-.776 1.12-.806 1.532-2.248h.65q-.885 3.718-5.186 3.717-2.446 0-4.095-1.525-1.65-1.526-1.65-3.774 0-2.47 1.68-4.16 1.678-1.694 4.153-1.693 2.27 0 3.595 1.22 1.353 1.194 1.561 3.496h-8.25zm19.42 4.828 6.806-9.517h-2.829q-2.12 0-2.533 2.969h-.708l.177-3.551h8.544v.637l-6.776 9.322h3.123q2.326.001 2.976-3.274h.648l-.177 3.914h-9.251zm21.734-.139h1.59V28.27h-1.59v-.582h.53q1.796 0 3.3-.25v3.08q1.295-3.108 4.36-3.108 1.501 0 2.386.777t.884 2.192v7.269h1.532v.638h-5.45v-.638h1.678v-7.353q0-2.052-1.826-2.053-1.415 0-2.475 1.332-1.031 1.304-1.03 3.274v4.8h1.56v.638h-5.45zm21.207-.056h2.122v-16.84h-2.122v-.695h7.425q6.893 0 6.894 4.218 0 1.692-1.238 2.83-1.207 1.11-3.507 1.47v.111q2.536.39 3.949 1.665 1.444 1.248 1.444 2.941 0 2.358-1.975 3.69-1.973 1.304-5.686 1.304h-7.306zm7.189-9.239q2.445 0 3.3-.86.853-.86.853-3.135 0-2.137-.942-2.858-.913-.749-3.33-.749h-2.062v7.602zm-2.18 9.24h2.562q2.445 0 3.3-.861.885-.887.884-3.302 0-2.386-1.001-3.384-1.002-.999-3.448-.999h-2.298z" fill="#1b1918" fill-rule="evenodd"/><path d="M175.782 38.62q-1.503 0-2.386-.666-.855-.693-.855-1.803 0-1.86 1.886-2.941 1.915-1.083 5.42-1.082v-2.609q0-1.553-2.327-1.553-1.002-.001-1.68.334-.677.304-.677.61.295.277.56.582.265.306.265.694 0 .526-.353.86-.324.305-.826.305-1.237 0-1.237-1.304 0-1.11 1.237-1.86 1.267-.749 3.389-.749 2.268 0 3.093.667.825.666.824 2.275v6.049q0 .582.09.804.117.222.5.222.796 0 1.032-1.026l.47.055q-.087.971-.765 1.554-.648.553-1.65.553-1.71.001-1.886-1.774-.53.803-1.678 1.304a6 6 0 0 1-2.446.498m-1.002-3.163q0 .915.59 1.499.588.582 1.62.582 1.236 0 2.033-.582.825-.584.824-1.61v-2.608q-2.475 0-3.77.694-1.297.694-1.297 2.025m9.553 2.193h1.59V28.27h-1.59v-.582h.53q1.796 0 3.3-.25v3.08q1.295-3.108 4.36-3.108 1.502 0 2.386.777t.883 2.192v7.269h1.533v.638h-5.45v-.638h1.678v-7.353q0-2.052-1.825-2.053-1.415 0-2.476 1.332-1.031 1.304-1.03 3.274v4.8h1.562v.638h-5.451zm15.243-17.036h-1.532v-.555l3.83-.277v17.868h1.65v.638h-5.568v-.638h1.62zm7.395 7.686h-1.945v-.61h4.832v.61h-1.826l-4.007 3.163 5.568 6.187h1.18v.638h-5.57v-.638h1.503l-4.744-5.438zM93.559 48.276q-.183.818-.772 1.287-.576.459-1.404.459-1.139 0-1.924-.794-.773-.806-.773-2.004 0-1.21.843-1.958.843-.761 1.755-.761.969 0 1.629.716.674.716.674 1.903h-3.735l-.028.58q0 1.11.379 1.613.393.504 1.278.503.66 0 1.151-.402.505-.414.688-1.142zm-1.095-1.332.014-.593q0-.906-.253-1.287t-.955-.38q-.73 0-1.067.548-.337.55-.337 1.712zm-16.416 2.731h1.362v-7.532l-.211-.01q-1.221-.001-1.881.76-.645.761-.646 2.316h-.154V41.93h7.049v3.28h-.169q-.197-1.724-.786-2.396-.59-.671-1.994-.67l-.028 7.531h1.362v.212h-3.904zm9.97-4.891q-.702 0-1.222.683-.505.682-.505 1.78v2.461h.969v.18h-2.991v-.18h.983V42.12h-.983v-.19h2.022v4.12q.225-.729.758-1.132a2 2 0 0 1 1.236-.414q.744 0 1.193.46.45.458.45 1.286v3.458h.969v.18h-2.991v-.18h.983V45.87q0-1.085-.871-1.085m16.92 4.89v.212h-3.904v-.212h1.362v-7.532h-1.362v-.213h4.142q1.377 0 2.219.616.856.604.857 1.555 0 1.914-3.174 1.914h-1.502v3.66zm-.042-3.872q1.305 0 1.671-.337.378-.346.379-1.555 0-.996-.351-1.377-.338-.39-1.503-.39h-1.516v3.66zm13.442 2.473q-.183.818-.772 1.287-.576.459-1.404.459-1.138 0-1.924-.794-.772-.806-.772-2.004 0-1.21.842-1.958.843-.761 1.755-.761.97 0 1.63.716.674.716.673 1.903h-3.735l-.028.58q0 1.11.38 1.613.393.504 1.277.503.66 0 1.152-.402.505-.414.687-1.142zm-1.095-1.332.014-.593q0-.906-.253-1.287-.252-.38-.955-.38-.73 0-1.067.548-.337.55-.337 1.712zm14.232 2.764v.18h-2.991v-.18h.969v-4.902h-.97v-.179h2.009v5.081zm-1.447-7.577q.295 0 .478.157.197.145.197.37 0 .224-.197.38a.75.75 0 0 1-.478.156.72.72 0 0 1-.463-.156.47.47 0 0 1-.196-.38q0-.225.182-.37a.74.74 0 0 1 .477-.157" fill="#1b1918" fill-rule="evenodd"/><path d="M134.099 48.276q-.184.818-.773 1.287-.575.459-1.404.459-1.138 0-1.923-.794-.773-.806-.773-2.004 0-1.21.843-1.958.842-.761 1.755-.761.968 0 1.629.716.674.716.673 1.903h-3.735l-.028.58q0 1.11.38 1.613.393.504 1.277.503.66 0 1.152-.402.505-.414.688-1.142zm-1.095-1.332.013-.593q0-.906-.252-1.287t-.954-.38q-.732 0-1.069.548-.336.55-.336 1.712zm-22.47-2.44q.393 0 .66.224.28.213.281.571a.52.52 0 0 1-.169.392q-.168.156-.463.156a.7.7 0 0 1-.42-.123.43.43 0 0 1-.156-.336q0-.213.141-.336a.58.58 0 0 1 .393-.134q.225.001.421.146-.21-.38-.758-.38-.63 0-1.096.704-.463.705-.463 1.847v2.473h.983v.18h-2.99v-.18h.968v-4.902h-.969v-.179h1.952l.056 1.287q.492-1.41 1.63-1.41m12.323 5.384h-2.99v-.18h.968V45.87q0-1.087-.8-1.087-.645 0-1.124.684-.463.671-.463 1.78v2.462h.983v.178h-2.99v-.178h.968v-4.902h-.969v-.18h1.952l.056 1.366q.24-.716.716-1.097a1.73 1.73 0 0 1 1.11-.392q.59 0 1.04.425.461.426.546 1.108.24-.737.716-1.13a1.72 1.72 0 0 1 1.123-.402q.76 0 1.18.458.435.447.435 1.288v3.458h.97v.178h-2.992v-.178h.983v-3.84q.001-1.086-.814-1.086-.645 0-1.11.672-.463.673-.463 1.791v2.463h.97zm15.046-5.384q.393 0 .66.224a.68.68 0 0 1 .282.571.52.52 0 0 1-.169.392q-.169.156-.464.156a.7.7 0 0 1-.42-.123.43.43 0 0 1-.156-.336q0-.213.142-.336a.58.58 0 0 1 .392-.134q.225.001.421.146-.21-.38-.758-.38-.63 0-1.095.704-.464.705-.464 1.847v2.473h.983v.18h-2.99v-.18h.968v-4.902h-.968v-.179h1.951l.056 1.287q.492-1.41 1.63-1.41m19.081 2.743a.68.68 0 0 0-.478.424q-.111.314-.112.996 0 .628.14.884.14.258.561.258.562 0 1.012-.514.463-.516.463-1.333V46.81a3.2 3.2 0 0 1-.688.234q-.42.102-.899.203m-.042 2.775q-.76 0-1.18-.392-.421-.39-.421-1.108 0-1.164 1.165-1.387 1.179-.234 1.446-.292.267-.055.618-.246V45.59q0-.883-1.124-.883-.899.001-1.262.626a.7.7 0 0 1 .237-.056q.225 0 .366.135a.38.38 0 0 1 .155.313.43.43 0 0 1-.17.359q-.168.134-.463.133a.65.65 0 0 1-.434-.156.57.57 0 0 1-.17-.426q0-.458.563-.794.575-.336 1.46-.336.856 0 1.361.414.521.404.52 1.153v3.2q0 .504.38.504.266 0 .434-.257.183-.258.183-.739h.239q0 1.243-1.04 1.243-.519 0-.841-.303-.31-.314-.31-.828v-.055q-.322.592-.744.894a1.63 1.63 0 0 1-.968.292m17.109-.315v.18h-2.99v-.18h.968v-4.902h-.969v-.179h2.008v5.081zm-1.447-7.577q.295 0 .479.157.195.145.195.37a.47.47 0 0 1-.196.38.74.74 0 0 1-.478.156.72.72 0 0 1-.463-.156.47.47 0 0 1-.197-.38q0-.225.184-.37a.74.74 0 0 1 .476-.157m-24.707 7.544v.212h-3.904v-.212h1.362v-7.532h-1.362v-.213h3.904v.213h-1.362v7.532zm2.764.157q.548 0 .899-.291a.9.9 0 0 0 .351-.728.86.86 0 0 0-.407-.76q-.408-.28-1.419-.695-1.01-.413-1.39-.694-.365-.29-.365-.84 0-.58.464-.95t1.165-.37q.758 0 1.475.616l.744-.493.028 1.959h-.155q-.252-.885-.828-1.388t-1.264-.503q-.421 0-.688.19a.58.58 0 0 0-.267.492q0 .425.323.65.337.211 1.306.604.983.38 1.432.772.464.381.464 1.008 0 .693-.534 1.152-.533.459-1.32.459-.968 0-1.685-.728l-.646.616h-.154v-2.171h.154q.309 1.008.927 1.555.618.539 1.39.538" fill="#1b1918" fill-rule="evenodd"/><path d="M152.34 42.12v-.19h2.022v7.779h.97v.179h-2.992v-.18h.983v-7.587zm14.98 7.768h-2.99v-.18h.969V45.87q0-1.087-.8-1.087-.646 0-1.124.684-.464.671-.463 1.78v2.462h.983v.178h-2.991v-.178h.969v-4.902h-.97v-.18h1.953l.056 1.366q.239-.716.716-1.097a1.73 1.73 0 0 1 1.109-.392q.59 0 1.04.425.462.426.547 1.108.239-.737.716-1.13a1.72 1.72 0 0 1 1.123-.402q.759 0 1.18.458.435.447.435 1.288v3.458h.969v.178h-2.991v-.178h.984v-3.84q0-1.086-.815-1.086-.647 0-1.11.672-.463.673-.463 1.791v2.463h.969zm9 .134q-1.038 0-1.825-.794-.773-.795-.773-1.96 0-1.341.885-2.047.899-.717 1.853-.717.702 0 1.166.392.478.38.478.94 0 .694-.73.694a.74.74 0 0 1-.478-.145.46.46 0 0 1-.183-.381q0-.224.183-.369a.68.68 0 0 1 .463-.157q.267 0 .506.202a1.18 1.18 0 0 0-.492-.74q-.364-.255-.927-.256-.969 0-1.263.637-.295.627-.295 2.172 0 1.242.31 1.79.308.538 1.164.537.828 0 1.39-.514.562-.515.562-1.422h.225q0 .997-.632 1.567t-1.587.57m7.606-.346h1.362v-7.532h-1.362v-.213h4.48q1.136 0 1.84.504.715.503.715 1.298 0 .76-.674 1.254-.66.492-1.896.615 2.95.258 2.95 2.059 0 1.053-.843 1.645-.83.584-2.416.582h-4.156zm2.542-4.186h1.362q.996 0 1.46-.38.478-.392.478-1.209 0-.952-.408-1.354-.393-.403-1.432-.403h-1.46zm1.39 4.186q1.165 0 1.7-.515.532-.525.532-1.668 0-.916-.547-1.354-.549-.435-1.74-.436h-1.335v3.973zm5.414-2.428a.69.69 0 0 0-.478.424q-.112.314-.112.996 0 .628.14.884.14.258.562.258.563 0 1.01-.514.465-.516.465-1.333V46.81a3.2 3.2 0 0 1-.688.234q-.421.102-.9.203m-.042 2.775q-.759 0-1.18-.392-.421-.39-.421-1.108 0-1.164 1.165-1.387 1.18-.234 1.447-.292.266-.055.618-.246V45.59q0-.883-1.124-.883-.899.001-1.264.626a.7.7 0 0 1 .239-.056q.225 0 .365.135a.38.38 0 0 1 .155.313.43.43 0 0 1-.17.359q-.167.134-.462.133a.64.64 0 0 1-.435-.156.57.57 0 0 1-.169-.426q0-.458.562-.794.576-.336 1.46-.336.856 0 1.362.414.52.404.52 1.153v3.2q0 .504.379.504.267 0 .435-.257.182-.258.182-.739h.239q0 1.243-1.039 1.243-.52 0-.842-.303-.31-.314-.31-.828v-.055q-.321.592-.743.894a1.63 1.63 0 0 1-.97.292m7.732-5.239q-.703 0-1.223.683-.505.682-.505 1.78v2.461h.983v.18h-2.99v-.18h.968v-4.902h-.969v-.179h1.951l.057 1.422q.225-.728.758-1.13a2 2 0 0 1 1.25-.415q.744 0 1.193.46.45.458.45 1.286v3.458h.97v.18h-2.992v-.18h.968V45.87q0-1.085-.87-1.085m3.115-2.665v-.19h2.021v5.54l1.84-1.756q.21-.203.21-.404 0-.503-.842-.503l-.042-.18h2.683v.18q-.69 0-1.56.817l-.829.784 2.15 3.3h.701v.18h-2.668v-.18h.8l-1.727-2.64-.716.66v1.98h.97v.18h-2.992v-.18h.983v-7.587z" fill="#1b1918" fill-rule="evenodd"/></svg>